<?xml version="1.0" encoding="utf-8"?>
<!-- Generator: Adobe Illustrator 22.1.0, SVG Export Plug-In . SVG Version: 6.00 Build 0)  -->
<svg version="1.1" id="burger-icon" xmlns="http://www.w3.org/2000/svg" xmlns:xlink="http://www.w3.org/1999/xlink" x="0px"
	 y="0px" viewBox="0 0 41 41" style="enable-background:new 0 0 41 41;" xml:space="preserve">
<path id="bar-1" d="M32.1,7.3H8c-1.4,0-2.5,1.1-2.5,2.4s1.1,2.4,2.5,2.4h24.1c1.4,0,2.5-1.1,2.5-2.4S33.4,7.3,32.1,7.3z"/>
<path id="bar-2" d="M32.1,18.1H8c-1.4,0-2.5,1.1-2.5,2.4c0,1.3,1.1,2.4,2.5,2.4h24.1c1.4,0,2.5-1.1,2.5-2.4
	C34.6,19.2,33.4,18.1,32.1,18.1z"/>
<path id="bar-3" d="M32.1,28.9H8c-1.4,0-2.5,1.1-2.5,2.4c0,1.3,1.1,2.4,2.5,2.4h24.1c1.4,0,2.5-1.1,2.5-2.4
	C34.6,30,33.4,28.9,32.1,28.9z"/>
</svg>
